<svg version="1.1" xmlns="http://www.w3.org/2000/svg" xmlns:xlink="http://www.w3.org/1999/xlink" width="477" height="293"><defs/><g><text fill="#cfcfcf" stroke="none" font-family="Arial" font-size="8px" font-style="normal" font-weight="normal" text-decoration="undefined" x="0" y="0" text-anchor="start" dominant-baseline="alphabetic" transform="matrix(1 0 0 1 0 0)">UNREGISTERED</text><text fill="#cfcfcf" stroke="none" font-family="Arial" font-size="8px" font-style="normal" font-weight="normal" text-decoration="undefined" x="0" y="12" text-anchor="start" dominant-baseline="alphabetic" transform="matrix(1 0 0 1 0 0)">UNREGISTERED</text><text fill="#cfcfcf" stroke="none" font-family="Arial" font-size="8px" font-style="normal" font-weight="normal" text-decoration="undefined" x="0" y="24" text-anchor="start" dominant-baseline="alphabetic" transform="matrix(1 0 0 1 0 0)">UNREGISTERED</text><text fill="#cfcfcf" stroke="none" font-family="Arial" font-size="8px" font-style="normal" font-weight="normal" text-decoration="undefined" x="0" y="36" text-anchor="start" dominant-baseline="alphabetic" transform="matrix(1 0 0 1 0 0)">UNREGISTERED</text><text fill="#cfcfcf" stroke="none" font-family="Arial" font-size="8px" font-style="normal" font-weight="normal" text-decoration="undefined" x="0" y="48" text-anchor="start" dominant-baseline="alphabetic" transform="matrix(1 0 0 1 0 0)">UNREGISTERED</text><text fill="#cfcfcf" stroke="none" font-family="Arial" font-size="8px" font-style="normal" font-weight="normal" text-decoration="undefined" x="0" y="60" text-anchor="start" dominant-baseline="alphabetic" transform="matrix(1 0 0 1 0 0)">UNREGISTERED</text><text fill="#cfcfcf" stroke="none" font-family="Arial" font-size="8px" font-style="normal" font-weight="normal" text-decoration="undefined" x="0" y="72" text-anchor="start" dominant-baseline="alphabetic" transform="matrix(1 0 0 1 0 0)">UNREGISTERED</text><text fill="#cfcfcf" stroke="none" font-family="Arial" font-size="8px" font-style="normal" font-weight="normal" text-decoration="undefined" x="0" y="84" text-anchor="start" dominant-baseline="alphabetic" transform="matrix(1 0 0 1 0 0)">UNREGISTERED</text><text fill="#cfcfcf" stroke="none" font-family="Arial" font-size="8px" font-style="normal" font-weight="normal" text-decoration="undefined" x="0" y="96" text-anchor="start" dominant-baseline="alphabetic" transform="matrix(1 0 0 1 0 0)">UNREGISTERED</text><text fill="#cfcfcf" stroke="none" font-family="Arial" font-size="8px" font-style="normal" font-weight="normal" text-decoration="undefined" x="0" y="108" text-anchor="start" dominant-baseline="alphabetic" transform="matrix(1 0 0 1 0 0)">UNREGISTERED</text><text fill="#cfcfcf" stroke="none" font-family="Arial" font-size="8px" font-style="normal" font-weight="normal" text-decoration="undefined" x="0" y="120" text-anchor="start" dominant-baseline="alphabetic" transform="matrix(1 0 0 1 0 0)">UNREGISTERED</text><text fill="#cfcfcf" stroke="none" font-family="Arial" font-size="8px" font-style="normal" font-weight="normal" text-decoration="undefined" x="0" y="132" text-anchor="start" dominant-baseline="alphabetic" transform="matrix(1 0 0 1 0 0)">UNREGISTERED</text><text fill="#cfcfcf" stroke="none" font-family="Arial" font-size="8px" font-style="normal" font-weight="normal" text-decoration="undefined" x="0" y="144" text-anchor="start" dominant-baseline="alphabetic" transform="matrix(1 0 0 1 0 0)">UNREGISTERED</text><text fill="#cfcfcf" stroke="none" font-family="Arial" font-size="8px" font-style="normal" font-weight="normal" text-decoration="undefined" x="0" y="156" text-anchor="start" dominant-baseline="alphabetic" transform="matrix(1 0 0 1 0 0)">UNREGISTERED</text><text fill="#cfcfcf" stroke="none" font-family="Arial" font-size="8px" font-style="normal" font-weight="normal" text-decoration="undefined" x="0" y="168" text-anchor="start" dominant-baseline="alphabetic" transform="matrix(1 0 0 1 0 0)">UNREGISTERED</text><text fill="#cfcfcf" stroke="none" font-family="Arial" font-size="8px" font-style="normal" font-weight="normal" text-decoration="undefined" x="0" y="180" text-anchor="start" dominant-baseline="alphabetic" transform="matrix(1 0 0 1 0 0)">UNREGISTERED</text><text fill="#cfcfcf" stroke="none" font-family="Arial" font-size="8px" font-style="normal" font-weight="normal" text-decoration="undefined" x="0" y="192" text-anchor="start" dominant-baseline="alphabetic" transform="matrix(1 0 0 1 0 0)">UNREGISTERED</text><text fill="#cfcfcf" stroke="none" font-family="Arial" font-size="8px" font-style="normal" font-weight="normal" text-decoration="undefined" x="0" y="204" text-anchor="start" dominant-baseline="alphabetic" transform="matrix(1 0 0 1 0 0)">UNREGISTERED</text><text fill="#cfcfcf" stroke="none" font-family="Arial" font-size="8px" font-style="normal" font-weight="normal" text-decoration="undefined" x="0" y="216" text-anchor="start" dominant-baseline="alphabetic" transform="matrix(1 0 0 1 0 0)">UNREGISTERED</text><text fill="#cfcfcf" stroke="none" font-family="Arial" font-size="8px" font-style="normal" font-weight="normal" text-decoration="undefined" x="0" y="228" text-anchor="start" dominant-baseline="alphabetic" transform="matrix(1 0 0 1 0 0)">UNREGISTERED</text><text fill="#cfcfcf" stroke="none" font-family="Arial" font-size="8px" font-style="normal" font-weight="normal" text-decoration="undefined" x="0" y="240" text-anchor="start" dominant-baseline="alphabetic" transform="matrix(1 0 0 1 0 0)">UNREGISTERED</text><text fill="#cfcfcf" stroke="none" font-family="Arial" font-size="8px" font-style="normal" font-weight="normal" text-decoration="undefined" x="0" y="252" text-anchor="start" dominant-baseline="alphabetic" transform="matrix(1 0 0 1 0 0)">UNREGISTERED</text><text fill="#cfcfcf" stroke="none" font-family="Arial" font-size="8px" font-style="normal" font-weight="normal" text-decoration="undefined" x="0" y="264" text-anchor="start" dominant-baseline="alphabetic" transform="matrix(1 0 0 1 0 0)">UNREGISTERED</text><text fill="#cfcfcf" stroke="none" font-family="Arial" font-size="8px" font-style="normal" font-weight="normal" text-decoration="undefined" x="0" y="276" text-anchor="start" dominant-baseline="alphabetic" transform="matrix(1 0 0 1 0 0)">UNREGISTERED</text><text fill="#cfcfcf" stroke="none" font-family="Arial" font-size="8px" font-style="normal" font-weight="normal" text-decoration="undefined" x="0" y="288" text-anchor="start" dominant-baseline="alphabetic" transform="matrix(1 0 0 1 0 0)">UNREGISTERED</text><text fill="#cfcfcf" stroke="none" font-family="Arial" font-size="8px" font-style="normal" font-weight="normal" text-decoration="undefined" x="70" y="0" text-anchor="start" dominant-baseline="alphabetic" transform="matrix(1 0 0 1 0 0)">UNREGISTERED</text><text fill="#cfcfcf" stroke="none" font-family="Arial" font-size="8px" font-style="normal" font-weight="normal" text-decoration="undefined" x="70" y="12" text-anchor="start" dominant-baseline="alphabetic" transform="matrix(1 0 0 1 0 0)">UNREGISTERED</text><text fill="#cfcfcf" stroke="none" font-family="Arial" font-size="8px" font-style="normal" font-weight="normal" text-decoration="undefined" x="70" y="24" text-anchor="start" dominant-baseline="alphabetic" transform="matrix(1 0 0 1 0 0)">UNREGISTERED</text><text fill="#cfcfcf" stroke="none" font-family="Arial" font-size="8px" font-style="normal" font-weight="normal" text-decoration="undefined" x="70" y="36" text-anchor="start" dominant-baseline="alphabetic" transform="matrix(1 0 0 1 0 0)">UNREGISTERED</text><text fill="#cfcfcf" stroke="none" font-family="Arial" font-size="8px" font-style="normal" font-weight="normal" text-decoration="undefined" x="70" y="48" text-anchor="start" dominant-baseline="alphabetic" transform="matrix(1 0 0 1 0 0)">UNREGISTERED</text><text fill="#cfcfcf" stroke="none" font-family="Arial" font-size="8px" font-style="normal" font-weight="normal" text-decoration="undefined" x="70" y="60" text-anchor="start" dominant-baseline="alphabetic" transform="matrix(1 0 0 1 0 0)">UNREGISTERED</text><text fill="#cfcfcf" stroke="none" font-family="Arial" font-size="8px" font-style="normal" font-weight="normal" text-decoration="undefined" x="70" y="72" text-anchor="start" dominant-baseline="alphabetic" transform="matrix(1 0 0 1 0 0)">UNREGISTERED</text><text fill="#cfcfcf" stroke="none" font-family="Arial" font-size="8px" font-style="normal" font-weight="normal" text-decoration="undefined" x="70" y="84" text-anchor="start" dominant-baseline="alphabetic" transform="matrix(1 0 0 1 0 0)">UNREGISTERED</text><text fill="#cfcfcf" stroke="none" font-family="Arial" font-size="8px" font-style="normal" font-weight="normal" text-decoration="undefined" x="70" y="96" text-anchor="start" dominant-baseline="alphabetic" transform="matrix(1 0 0 1 0 0)">UNREGISTERED</text><text fill="#cfcfcf" stroke="none" font-family="Arial" font-size="8px" font-style="normal" font-weight="normal" text-decoration="undefined" x="70" y="108" text-anchor="start" dominant-baseline="alphabetic" transform="matrix(1 0 0 1 0 0)">UNREGISTERED</text><text fill="#cfcfcf" stroke="none" font-family="Arial" font-size="8px" font-style="normal" font-weight="normal" text-decoration="undefined" x="70" y="120" text-anchor="start" dominant-baseline="alphabetic" transform="matrix(1 0 0 1 0 0)">UNREGISTERED</text><text fill="#cfcfcf" stroke="none" font-family="Arial" font-size="8px" font-style="normal" font-weight="normal" text-decoration="undefined" x="70" y="132" text-anchor="start" dominant-baseline="alphabetic" transform="matrix(1 0 0 1 0 0)">UNREGISTERED</text><text fill="#cfcfcf" stroke="none" font-family="Arial" font-size="8px" font-style="normal" font-weight="normal" text-decoration="undefined" x="70" y="144" text-anchor="start" dominant-baseline="alphabetic" transform="matrix(1 0 0 1 0 0)">UNREGISTERED</text><text fill="#cfcfcf" stroke="none" font-family="Arial" font-size="8px" font-style="normal" font-weight="normal" text-decoration="undefined" x="70" y="156" text-anchor="start" dominant-baseline="alphabetic" transform="matrix(1 0 0 1 0 0)">UNREGISTERED</text><text fill="#cfcfcf" stroke="none" font-family="Arial" font-size="8px" font-style="normal" font-weight="normal" text-decoration="undefined" x="70" y="168" text-anchor="start" dominant-baseline="alphabetic" transform="matrix(1 0 0 1 0 0)">UNREGISTERED</text><text fill="#cfcfcf" stroke="none" font-family="Arial" font-size="8px" font-style="normal" font-weight="normal" text-decoration="undefined" x="70" y="180" text-anchor="start" dominant-baseline="alphabetic" transform="matrix(1 0 0 1 0 0)">UNREGISTERED</text><text fill="#cfcfcf" stroke="none" font-family="Arial" font-size="8px" font-style="normal" font-weight="normal" text-decoration="undefined" x="70" y="192" text-anchor="start" dominant-baseline="alphabetic" transform="matrix(1 0 0 1 0 0)">UNREGISTERED</text><text fill="#cfcfcf" stroke="none" font-family="Arial" font-size="8px" font-style="normal" font-weight="normal" text-decoration="undefined" x="70" y="204" text-anchor="start" dominant-baseline="alphabetic" transform="matrix(1 0 0 1 0 0)">UNREGISTERED</text><text fill="#cfcfcf" stroke="none" font-family="Arial" font-size="8px" font-style="normal" font-weight="normal" text-decoration="undefined" x="70" y="216" text-anchor="start" dominant-baseline="alphabetic" transform="matrix(1 0 0 1 0 0)">UNREGISTERED</text><text fill="#cfcfcf" stroke="none" font-family="Arial" font-size="8px" font-style="normal" font-weight="normal" text-decoration="undefined" x="70" y="228" text-anchor="start" dominant-baseline="alphabetic" transform="matrix(1 0 0 1 0 0)">UNREGISTERED</text><text fill="#cfcfcf" stroke="none" font-family="Arial" font-size="8px" font-style="normal" font-weight="normal" text-decoration="undefined" x="70" y="240" text-anchor="start" dominant-baseline="alphabetic" transform="matrix(1 0 0 1 0 0)">UNREGISTERED</text><text fill="#cfcfcf" stroke="none" font-family="Arial" font-size="8px" font-style="normal" font-weight="normal" text-decoration="undefined" x="70" y="252" text-anchor="start" dominant-baseline="alphabetic" transform="matrix(1 0 0 1 0 0)">UNREGISTERED</text><text fill="#cfcfcf" stroke="none" font-family="Arial" font-size="8px" font-style="normal" font-weight="normal" text-decoration="undefined" x="70" y="264" text-anchor="start" dominant-baseline="alphabetic" transform="matrix(1 0 0 1 0 0)">UNREGISTERED</text><text fill="#cfcfcf" stroke="none" font-family="Arial" font-size="8px" font-style="normal" font-weight="normal" text-decoration="undefined" x="70" y="276" text-anchor="start" dominant-baseline="alphabetic" transform="matrix(1 0 0 1 0 0)">UNREGISTERED</text><text fill="#cfcfcf" stroke="none" font-family="Arial" font-size="8px" font-style="normal" font-weight="normal" text-decoration="undefined" x="70" y="288" text-anchor="start" dominant-baseline="alphabetic" transform="matrix(1 0 0 1 0 0)">UNREGISTERED</text><text fill="#cfcfcf" stroke="none" font-family="Arial" font-size="8px" font-style="normal" font-weight="normal" text-decoration="undefined" x="140" y="0" text-anchor="start" dominant-baseline="alphabetic" transform="matrix(1 0 0 1 0 0)">UNREGISTERED</text><text fill="#cfcfcf" stroke="none" font-family="Arial" font-size="8px" font-style="normal" font-weight="normal" text-decoration="undefined" x="140" y="12" text-anchor="start" dominant-baseline="alphabetic" transform="matrix(1 0 0 1 0 0)">UNREGISTERED</text><text fill="#cfcfcf" stroke="none" font-family="Arial" font-size="8px" font-style="normal" font-weight="normal" text-decoration="undefined" x="140" y="24" text-anchor="start" dominant-baseline="alphabetic" transform="matrix(1 0 0 1 0 0)">UNREGISTERED</text><text fill="#cfcfcf" stroke="none" font-family="Arial" font-size="8px" font-style="normal" font-weight="normal" text-decoration="undefined" x="140" y="36" text-anchor="start" dominant-baseline="alphabetic" transform="matrix(1 0 0 1 0 0)">UNREGISTERED</text><text fill="#cfcfcf" stroke="none" font-family="Arial" font-size="8px" font-style="normal" font-weight="normal" text-decoration="undefined" x="140" y="48" text-anchor="start" dominant-baseline="alphabetic" transform="matrix(1 0 0 1 0 0)">UNREGISTERED</text><text fill="#cfcfcf" stroke="none" font-family="Arial" font-size="8px" font-style="normal" font-weight="normal" text-decoration="undefined" x="140" y="60" text-anchor="start" dominant-baseline="alphabetic" transform="matrix(1 0 0 1 0 0)">UNREGISTERED</text><text fill="#cfcfcf" stroke="none" font-family="Arial" font-size="8px" font-style="normal" font-weight="normal" text-decoration="undefined" x="140" y="72" text-anchor="start" dominant-baseline="alphabetic" transform="matrix(1 0 0 1 0 0)">UNREGISTERED</text><text fill="#cfcfcf" stroke="none" font-family="Arial" font-size="8px" font-style="normal" font-weight="normal" text-decoration="undefined" x="140" y="84" text-anchor="start" dominant-baseline="alphabetic" transform="matrix(1 0 0 1 0 0)">UNREGISTERED</text><text fill="#cfcfcf" stroke="none" font-family="Arial" font-size="8px" font-style="normal" font-weight="normal" text-decoration="undefined" x="140" y="96" text-anchor="start" dominant-baseline="alphabetic" transform="matrix(1 0 0 1 0 0)">UNREGISTERED</text><text fill="#cfcfcf" stroke="none" font-family="Arial" font-size="8px" font-style="normal" font-weight="normal" text-decoration="undefined" x="140" y="108" text-anchor="start" dominant-baseline="alphabetic" transform="matrix(1 0 0 1 0 0)">UNREGISTERED</text><text fill="#cfcfcf" stroke="none" font-family="Arial" font-size="8px" font-style="normal" font-weight="normal" text-decoration="undefined" x="140" y="120" text-anchor="start" dominant-baseline="alphabetic" transform="matrix(1 0 0 1 0 0)">UNREGISTERED</text><text fill="#cfcfcf" stroke="none" font-family="Arial" font-size="8px" font-style="normal" font-weight="normal" text-decoration="undefined" x="140" y="132" text-anchor="start" dominant-baseline="alphabetic" transform="matrix(1 0 0 1 0 0)">UNREGISTERED</text><text fill="#cfcfcf" stroke="none" font-family="Arial" font-size="8px" font-style="normal" font-weight="normal" text-decoration="undefined" x="140" y="144" text-anchor="start" dominant-baseline="alphabetic" transform="matrix(1 0 0 1 0 0)">UNREGISTERED</text><text fill="#cfcfcf" stroke="none" font-family="Arial" font-size="8px" font-style="normal" font-weight="normal" text-decoration="undefined" x="140" y="156" text-anchor="start" dominant-baseline="alphabetic" transform="matrix(1 0 0 1 0 0)">UNREGISTERED</text><text fill="#cfcfcf" stroke="none" font-family="Arial" font-size="8px" font-style="normal" font-weight="normal" text-decoration="undefined" x="140" y="168" text-anchor="start" dominant-baseline="alphabetic" transform="matrix(1 0 0 1 0 0)">UNREGISTERED</text><text fill="#cfcfcf" stroke="none" font-family="Arial" font-size="8px" font-style="normal" font-weight="normal" text-decoration="undefined" x="140" y="180" text-anchor="start" dominant-baseline="alphabetic" transform="matrix(1 0 0 1 0 0)">UNREGISTERED</text><text fill="#cfcfcf" stroke="none" font-family="Arial" font-size="8px" font-style="normal" font-weight="normal" text-decoration="undefined" x="140" y="192" text-anchor="start" dominant-baseline="alphabetic" transform="matrix(1 0 0 1 0 0)">UNREGISTERED</text><text fill="#cfcfcf" stroke="none" font-family="Arial" font-size="8px" font-style="normal" font-weight="normal" text-decoration="undefined" x="140" y="204" text-anchor="start" dominant-baseline="alphabetic" transform="matrix(1 0 0 1 0 0)">UNREGISTERED</text><text fill="#cfcfcf" stroke="none" font-family="Arial" font-size="8px" font-style="normal" font-weight="normal" text-decoration="undefined" x="140" y="216" text-anchor="start" dominant-baseline="alphabetic" transform="matrix(1 0 0 1 0 0)">UNREGISTERED</text><text fill="#cfcfcf" stroke="none" font-family="Arial" font-size="8px" font-style="normal" font-weight="normal" text-decoration="undefined" x="140" y="228" text-anchor="start" dominant-baseline="alphabetic" transform="matrix(1 0 0 1 0 0)">UNREGISTERED</text><text fill="#cfcfcf" stroke="none" font-family="Arial" font-size="8px" font-style="normal" font-weight="normal" text-decoration="undefined" x="140" y="240" text-anchor="start" dominant-baseline="alphabetic" transform="matrix(1 0 0 1 0 0)">UNREGISTERED</text><text fill="#cfcfcf" stroke="none" font-family="Arial" font-size="8px" font-style="normal" font-weight="normal" text-decoration="undefined" x="140" y="252" text-anchor="start" dominant-baseline="alphabetic" transform="matrix(1 0 0 1 0 0)">UNREGISTERED</text><text fill="#cfcfcf" stroke="none" font-family="Arial" font-size="8px" font-style="normal" font-weight="normal" text-decoration="undefined" x="140" y="264" text-anchor="start" dominant-baseline="alphabetic" transform="matrix(1 0 0 1 0 0)">UNREGISTERED</text><text fill="#cfcfcf" stroke="none" font-family="Arial" font-size="8px" font-style="normal" font-weight="normal" text-decoration="undefined" x="140" y="276" text-anchor="start" dominant-baseline="alphabetic" transform="matrix(1 0 0 1 0 0)">UNREGISTERED</text><text fill="#cfcfcf" stroke="none" font-family="Arial" font-size="8px" font-style="normal" font-weight="normal" text-decoration="undefined" x="140" y="288" text-anchor="start" dominant-baseline="alphabetic" transform="matrix(1 0 0 1 0 0)">UNREGISTERED</text><text fill="#cfcfcf" stroke="none" font-family="Arial" font-size="8px" font-style="normal" font-weight="normal" text-decoration="undefined" x="210" y="0" text-anchor="start" dominant-baseline="alphabetic" transform="matrix(1 0 0 1 0 0)">UNREGISTERED</text><text fill="#cfcfcf" stroke="none" font-family="Arial" font-size="8px" font-style="normal" font-weight="normal" text-decoration="undefined" x="210" y="12" text-anchor="start" dominant-baseline="alphabetic" transform="matrix(1 0 0 1 0 0)">UNREGISTERED</text><text fill="#cfcfcf" stroke="none" font-family="Arial" font-size="8px" font-style="normal" font-weight="normal" text-decoration="undefined" x="210" y="24" text-anchor="start" dominant-baseline="alphabetic" transform="matrix(1 0 0 1 0 0)">UNREGISTERED</text><text fill="#cfcfcf" stroke="none" font-family="Arial" font-size="8px" font-style="normal" font-weight="normal" text-decoration="undefined" x="210" y="36" text-anchor="start" dominant-baseline="alphabetic" transform="matrix(1 0 0 1 0 0)">UNREGISTERED</text><text fill="#cfcfcf" stroke="none" font-family="Arial" font-size="8px" font-style="normal" font-weight="normal" text-decoration="undefined" x="210" y="48" text-anchor="start" dominant-baseline="alphabetic" transform="matrix(1 0 0 1 0 0)">UNREGISTERED</text><text fill="#cfcfcf" stroke="none" font-family="Arial" font-size="8px" font-style="normal" font-weight="normal" text-decoration="undefined" x="210" y="60" text-anchor="start" dominant-baseline="alphabetic" transform="matrix(1 0 0 1 0 0)">UNREGISTERED</text><text fill="#cfcfcf" stroke="none" font-family="Arial" font-size="8px" font-style="normal" font-weight="normal" text-decoration="undefined" x="210" y="72" text-anchor="start" dominant-baseline="alphabetic" transform="matrix(1 0 0 1 0 0)">UNREGISTERED</text><text fill="#cfcfcf" stroke="none" font-family="Arial" font-size="8px" font-style="normal" font-weight="normal" text-decoration="undefined" x="210" y="84" text-anchor="start" dominant-baseline="alphabetic" transform="matrix(1 0 0 1 0 0)">UNREGISTERED</text><text fill="#cfcfcf" stroke="none" font-family="Arial" font-size="8px" font-style="normal" font-weight="normal" text-decoration="undefined" x="210" y="96" text-anchor="start" dominant-baseline="alphabetic" transform="matrix(1 0 0 1 0 0)">UNREGISTERED</text><text fill="#cfcfcf" stroke="none" font-family="Arial" font-size="8px" font-style="normal" font-weight="normal" text-decoration="undefined" x="210" y="108" text-anchor="start" dominant-baseline="alphabetic" transform="matrix(1 0 0 1 0 0)">UNREGISTERED</text><text fill="#cfcfcf" stroke="none" font-family="Arial" font-size="8px" font-style="normal" font-weight="normal" text-decoration="undefined" x="210" y="120" text-anchor="start" dominant-baseline="alphabetic" transform="matrix(1 0 0 1 0 0)">UNREGISTERED</text><text fill="#cfcfcf" stroke="none" font-family="Arial" font-size="8px" font-style="normal" font-weight="normal" text-decoration="undefined" x="210" y="132" text-anchor="start" dominant-baseline="alphabetic" transform="matrix(1 0 0 1 0 0)">UNREGISTERED</text><text fill="#cfcfcf" stroke="none" font-family="Arial" font-size="8px" font-style="normal" font-weight="normal" text-decoration="undefined" x="210" y="144" text-anchor="start" dominant-baseline="alphabetic" transform="matrix(1 0 0 1 0 0)">UNREGISTERED</text><text fill="#cfcfcf" stroke="none" font-family="Arial" font-size="8px" font-style="normal" font-weight="normal" text-decoration="undefined" x="210" y="156" text-anchor="start" dominant-baseline="alphabetic" transform="matrix(1 0 0 1 0 0)">UNREGISTERED</text><text fill="#cfcfcf" stroke="none" font-family="Arial" font-size="8px" font-style="normal" font-weight="normal" text-decoration="undefined" x="210" y="168" text-anchor="start" dominant-baseline="alphabetic" transform="matrix(1 0 0 1 0 0)">UNREGISTERED</text><text fill="#cfcfcf" stroke="none" font-family="Arial" font-size="8px" font-style="normal" font-weight="normal" text-decoration="undefined" x="210" y="180" text-anchor="start" dominant-baseline="alphabetic" transform="matrix(1 0 0 1 0 0)">UNREGISTERED</text><text fill="#cfcfcf" stroke="none" font-family="Arial" font-size="8px" font-style="normal" font-weight="normal" text-decoration="undefined" x="210" y="192" text-anchor="start" dominant-baseline="alphabetic" transform="matrix(1 0 0 1 0 0)">UNREGISTERED</text><text fill="#cfcfcf" stroke="none" font-family="Arial" font-size="8px" font-style="normal" font-weight="normal" text-decoration="undefined" x="210" y="204" text-anchor="start" dominant-baseline="alphabetic" transform="matrix(1 0 0 1 0 0)">UNREGISTERED</text><text fill="#cfcfcf" stroke="none" font-family="Arial" font-size="8px" font-style="normal" font-weight="normal" text-decoration="undefined" x="210" y="216" text-anchor="start" dominant-baseline="alphabetic" transform="matrix(1 0 0 1 0 0)">UNREGISTERED</text><text fill="#cfcfcf" stroke="none" font-family="Arial" font-size="8px" font-style="normal" font-weight="normal" text-decoration="undefined" x="210" y="228" text-anchor="start" dominant-baseline="alphabetic" transform="matrix(1 0 0 1 0 0)">UNREGISTERED</text><text fill="#cfcfcf" stroke="none" font-family="Arial" font-size="8px" font-style="normal" font-weight="normal" text-decoration="undefined" x="210" y="240" text-anchor="start" dominant-baseline="alphabetic" transform="matrix(1 0 0 1 0 0)">UNREGISTERED</text><text fill="#cfcfcf" stroke="none" font-family="Arial" font-size="8px" font-style="normal" font-weight="normal" text-decoration="undefined" x="210" y="252" text-anchor="start" dominant-baseline="alphabetic" transform="matrix(1 0 0 1 0 0)">UNREGISTERED</text><text fill="#cfcfcf" stroke="none" font-family="Arial" font-size="8px" font-style="normal" font-weight="normal" text-decoration="undefined" x="210" y="264" text-anchor="start" dominant-baseline="alphabetic" transform="matrix(1 0 0 1 0 0)">UNREGISTERED</text><text fill="#cfcfcf" stroke="none" font-family="Arial" font-size="8px" font-style="normal" font-weight="normal" text-decoration="undefined" x="210" y="276" text-anchor="start" dominant-baseline="alphabetic" transform="matrix(1 0 0 1 0 0)">UNREGISTERED</text><text fill="#cfcfcf" stroke="none" font-family="Arial" font-size="8px" font-style="normal" font-weight="normal" text-decoration="undefined" x="210" y="288" text-anchor="start" dominant-baseline="alphabetic" transform="matrix(1 0 0 1 0 0)">UNREGISTERED</text><text fill="#cfcfcf" stroke="none" font-family="Arial" font-size="8px" font-style="normal" font-weight="normal" text-decoration="undefined" x="280" y="0" text-anchor="start" dominant-baseline="alphabetic" transform="matrix(1 0 0 1 0 0)">UNREGISTERED</text><text fill="#cfcfcf" stroke="none" font-family="Arial" font-size="8px" font-style="normal" font-weight="normal" text-decoration="undefined" x="280" y="12" text-anchor="start" dominant-baseline="alphabetic" transform="matrix(1 0 0 1 0 0)">UNREGISTERED</text><text fill="#cfcfcf" stroke="none" font-family="Arial" font-size="8px" font-style="normal" font-weight="normal" text-decoration="undefined" x="280" y="24" text-anchor="start" dominant-baseline="alphabetic" transform="matrix(1 0 0 1 0 0)">UNREGISTERED</text><text fill="#cfcfcf" stroke="none" font-family="Arial" font-size="8px" font-style="normal" font-weight="normal" text-decoration="undefined" x="280" y="36" text-anchor="start" dominant-baseline="alphabetic" transform="matrix(1 0 0 1 0 0)">UNREGISTERED</text><text fill="#cfcfcf" stroke="none" font-family="Arial" font-size="8px" font-style="normal" font-weight="normal" text-decoration="undefined" x="280" y="48" text-anchor="start" dominant-baseline="alphabetic" transform="matrix(1 0 0 1 0 0)">UNREGISTERED</text><text fill="#cfcfcf" stroke="none" font-family="Arial" font-size="8px" font-style="normal" font-weight="normal" text-decoration="undefined" x="280" y="60" text-anchor="start" dominant-baseline="alphabetic" transform="matrix(1 0 0 1 0 0)">UNREGISTERED</text><text fill="#cfcfcf" stroke="none" font-family="Arial" font-size="8px" font-style="normal" font-weight="normal" text-decoration="undefined" x="280" y="72" text-anchor="start" dominant-baseline="alphabetic" transform="matrix(1 0 0 1 0 0)">UNREGISTERED</text><text fill="#cfcfcf" stroke="none" font-family="Arial" font-size="8px" font-style="normal" font-weight="normal" text-decoration="undefined" x="280" y="84" text-anchor="start" dominant-baseline="alphabetic" transform="matrix(1 0 0 1 0 0)">UNREGISTERED</text><text fill="#cfcfcf" stroke="none" font-family="Arial" font-size="8px" font-style="normal" font-weight="normal" text-decoration="undefined" x="280" y="96" text-anchor="start" dominant-baseline="alphabetic" transform="matrix(1 0 0 1 0 0)">UNREGISTERED</text><text fill="#cfcfcf" stroke="none" font-family="Arial" font-size="8px" font-style="normal" font-weight="normal" text-decoration="undefined" x="280" y="108" text-anchor="start" dominant-baseline="alphabetic" transform="matrix(1 0 0 1 0 0)">UNREGISTERED</text><text fill="#cfcfcf" stroke="none" font-family="Arial" font-size="8px" font-style="normal" font-weight="normal" text-decoration="undefined" x="280" y="120" text-anchor="start" dominant-baseline="alphabetic" transform="matrix(1 0 0 1 0 0)">UNREGISTERED</text><text fill="#cfcfcf" stroke="none" font-family="Arial" font-size="8px" font-style="normal" font-weight="normal" text-decoration="undefined" x="280" y="132" text-anchor="start" dominant-baseline="alphabetic" transform="matrix(1 0 0 1 0 0)">UNREGISTERED</text><text fill="#cfcfcf" stroke="none" font-family="Arial" font-size="8px" font-style="normal" font-weight="normal" text-decoration="undefined" x="280" y="144" text-anchor="start" dominant-baseline="alphabetic" transform="matrix(1 0 0 1 0 0)">UNREGISTERED</text><text fill="#cfcfcf" stroke="none" font-family="Arial" font-size="8px" font-style="normal" font-weight="normal" text-decoration="undefined" x="280" y="156" text-anchor="start" dominant-baseline="alphabetic" transform="matrix(1 0 0 1 0 0)">UNREGISTERED</text><text fill="#cfcfcf" stroke="none" font-family="Arial" font-size="8px" font-style="normal" font-weight="normal" text-decoration="undefined" x="280" y="168" text-anchor="start" dominant-baseline="alphabetic" transform="matrix(1 0 0 1 0 0)">UNREGISTERED</text><text fill="#cfcfcf" stroke="none" font-family="Arial" font-size="8px" font-style="normal" font-weight="normal" text-decoration="undefined" x="280" y="180" text-anchor="start" dominant-baseline="alphabetic" transform="matrix(1 0 0 1 0 0)">UNREGISTERED</text><text fill="#cfcfcf" stroke="none" font-family="Arial" font-size="8px" font-style="normal" font-weight="normal" text-decoration="undefined" x="280" y="192" text-anchor="start" dominant-baseline="alphabetic" transform="matrix(1 0 0 1 0 0)">UNREGISTERED</text><text fill="#cfcfcf" stroke="none" font-family="Arial" font-size="8px" font-style="normal" font-weight="normal" text-decoration="undefined" x="280" y="204" text-anchor="start" dominant-baseline="alphabetic" transform="matrix(1 0 0 1 0 0)">UNREGISTERED</text><text fill="#cfcfcf" stroke="none" font-family="Arial" font-size="8px" font-style="normal" font-weight="normal" text-decoration="undefined" x="280" y="216" text-anchor="start" dominant-baseline="alphabetic" transform="matrix(1 0 0 1 0 0)">UNREGISTERED</text><text fill="#cfcfcf" stroke="none" font-family="Arial" font-size="8px" font-style="normal" font-weight="normal" text-decoration="undefined" x="280" y="228" text-anchor="start" dominant-baseline="alphabetic" transform="matrix(1 0 0 1 0 0)">UNREGISTERED</text><text fill="#cfcfcf" stroke="none" font-family="Arial" font-size="8px" font-style="normal" font-weight="normal" text-decoration="undefined" x="280" y="240" text-anchor="start" dominant-baseline="alphabetic" transform="matrix(1 0 0 1 0 0)">UNREGISTERED</text><text fill="#cfcfcf" stroke="none" font-family="Arial" font-size="8px" font-style="normal" font-weight="normal" text-decoration="undefined" x="280" y="252" text-anchor="start" dominant-baseline="alphabetic" transform="matrix(1 0 0 1 0 0)">UNREGISTERED</text><text fill="#cfcfcf" stroke="none" font-family="Arial" font-size="8px" font-style="normal" font-weight="normal" text-decoration="undefined" x="280" y="264" text-anchor="start" dominant-baseline="alphabetic" transform="matrix(1 0 0 1 0 0)">UNREGISTERED</text><text fill="#cfcfcf" stroke="none" font-family="Arial" font-size="8px" font-style="normal" font-weight="normal" text-decoration="undefined" x="280" y="276" text-anchor="start" dominant-baseline="alphabetic" transform="matrix(1 0 0 1 0 0)">UNREGISTERED</text><text fill="#cfcfcf" stroke="none" font-family="Arial" font-size="8px" font-style="normal" font-weight="normal" text-decoration="undefined" x="280" y="288" text-anchor="start" dominant-baseline="alphabetic" transform="matrix(1 0 0 1 0 0)">UNREGISTERED</text><text fill="#cfcfcf" stroke="none" font-family="Arial" font-size="8px" font-style="normal" font-weight="normal" text-decoration="undefined" x="350" y="0" text-anchor="start" dominant-baseline="alphabetic" transform="matrix(1 0 0 1 0 0)">UNREGISTERED</text><text fill="#cfcfcf" stroke="none" font-family="Arial" font-size="8px" font-style="normal" font-weight="normal" text-decoration="undefined" x="350" y="12" text-anchor="start" dominant-baseline="alphabetic" transform="matrix(1 0 0 1 0 0)">UNREGISTERED</text><text fill="#cfcfcf" stroke="none" font-family="Arial" font-size="8px" font-style="normal" font-weight="normal" text-decoration="undefined" x="350" y="24" text-anchor="start" dominant-baseline="alphabetic" transform="matrix(1 0 0 1 0 0)">UNREGISTERED</text><text fill="#cfcfcf" stroke="none" font-family="Arial" font-size="8px" font-style="normal" font-weight="normal" text-decoration="undefined" x="350" y="36" text-anchor="start" dominant-baseline="alphabetic" transform="matrix(1 0 0 1 0 0)">UNREGISTERED</text><text fill="#cfcfcf" stroke="none" font-family="Arial" font-size="8px" font-style="normal" font-weight="normal" text-decoration="undefined" x="350" y="48" text-anchor="start" dominant-baseline="alphabetic" transform="matrix(1 0 0 1 0 0)">UNREGISTERED</text><text fill="#cfcfcf" stroke="none" font-family="Arial" font-size="8px" font-style="normal" font-weight="normal" text-decoration="undefined" x="350" y="60" text-anchor="start" dominant-baseline="alphabetic" transform="matrix(1 0 0 1 0 0)">UNREGISTERED</text><text fill="#cfcfcf" stroke="none" font-family="Arial" font-size="8px" font-style="normal" font-weight="normal" text-decoration="undefined" x="350" y="72" text-anchor="start" dominant-baseline="alphabetic" transform="matrix(1 0 0 1 0 0)">UNREGISTERED</text><text fill="#cfcfcf" stroke="none" font-family="Arial" font-size="8px" font-style="normal" font-weight="normal" text-decoration="undefined" x="350" y="84" text-anchor="start" dominant-baseline="alphabetic" transform="matrix(1 0 0 1 0 0)">UNREGISTERED</text><text fill="#cfcfcf" stroke="none" font-family="Arial" font-size="8px" font-style="normal" font-weight="normal" text-decoration="undefined" x="350" y="96" text-anchor="start" dominant-baseline="alphabetic" transform="matrix(1 0 0 1 0 0)">UNREGISTERED</text><text fill="#cfcfcf" stroke="none" font-family="Arial" font-size="8px" font-style="normal" font-weight="normal" text-decoration="undefined" x="350" y="108" text-anchor="start" dominant-baseline="alphabetic" transform="matrix(1 0 0 1 0 0)">UNREGISTERED</text><text fill="#cfcfcf" stroke="none" font-family="Arial" font-size="8px" font-style="normal" font-weight="normal" text-decoration="undefined" x="350" y="120" text-anchor="start" dominant-baseline="alphabetic" transform="matrix(1 0 0 1 0 0)">UNREGISTERED</text><text fill="#cfcfcf" stroke="none" font-family="Arial" font-size="8px" font-style="normal" font-weight="normal" text-decoration="undefined" x="350" y="132" text-anchor="start" dominant-baseline="alphabetic" transform="matrix(1 0 0 1 0 0)">UNREGISTERED</text><text fill="#cfcfcf" stroke="none" font-family="Arial" font-size="8px" font-style="normal" font-weight="normal" text-decoration="undefined" x="350" y="144" text-anchor="start" dominant-baseline="alphabetic" transform="matrix(1 0 0 1 0 0)">UNREGISTERED</text><text fill="#cfcfcf" stroke="none" font-family="Arial" font-size="8px" font-style="normal" font-weight="normal" text-decoration="undefined" x="350" y="156" text-anchor="start" dominant-baseline="alphabetic" transform="matrix(1 0 0 1 0 0)">UNREGISTERED</text><text fill="#cfcfcf" stroke="none" font-family="Arial" font-size="8px" font-style="normal" font-weight="normal" text-decoration="undefined" x="350" y="168" text-anchor="start" dominant-baseline="alphabetic" transform="matrix(1 0 0 1 0 0)">UNREGISTERED</text><text fill="#cfcfcf" stroke="none" font-family="Arial" font-size="8px" font-style="normal" font-weight="normal" text-decoration="undefined" x="350" y="180" text-anchor="start" dominant-baseline="alphabetic" transform="matrix(1 0 0 1 0 0)">UNREGISTERED</text><text fill="#cfcfcf" stroke="none" font-family="Arial" font-size="8px" font-style="normal" font-weight="normal" text-decoration="undefined" x="350" y="192" text-anchor="start" dominant-baseline="alphabetic" transform="matrix(1 0 0 1 0 0)">UNREGISTERED</text><text fill="#cfcfcf" stroke="none" font-family="Arial" font-size="8px" font-style="normal" font-weight="normal" text-decoration="undefined" x="350" y="204" text-anchor="start" dominant-baseline="alphabetic" transform="matrix(1 0 0 1 0 0)">UNREGISTERED</text><text fill="#cfcfcf" stroke="none" font-family="Arial" font-size="8px" font-style="normal" font-weight="normal" text-decoration="undefined" x="350" y="216" text-anchor="start" dominant-baseline="alphabetic" transform="matrix(1 0 0 1 0 0)">UNREGISTERED</text><text fill="#cfcfcf" stroke="none" font-family="Arial" font-size="8px" font-style="normal" font-weight="normal" text-decoration="undefined" x="350" y="228" text-anchor="start" dominant-baseline="alphabetic" transform="matrix(1 0 0 1 0 0)">UNREGISTERED</text><text fill="#cfcfcf" stroke="none" font-family="Arial" font-size="8px" font-style="normal" font-weight="normal" text-decoration="undefined" x="350" y="240" text-anchor="start" dominant-baseline="alphabetic" transform="matrix(1 0 0 1 0 0)">UNREGISTERED</text><text fill="#cfcfcf" stroke="none" font-family="Arial" font-size="8px" font-style="normal" font-weight="normal" text-decoration="undefined" x="350" y="252" text-anchor="start" dominant-baseline="alphabetic" transform="matrix(1 0 0 1 0 0)">UNREGISTERED</text><text fill="#cfcfcf" stroke="none" font-family="Arial" font-size="8px" font-style="normal" font-weight="normal" text-decoration="undefined" x="350" y="264" text-anchor="start" dominant-baseline="alphabetic" transform="matrix(1 0 0 1 0 0)">UNREGISTERED</text><text fill="#cfcfcf" stroke="none" font-family="Arial" font-size="8px" font-style="normal" font-weight="normal" text-decoration="undefined" x="350" y="276" text-anchor="start" dominant-baseline="alphabetic" transform="matrix(1 0 0 1 0 0)">UNREGISTERED</text><text fill="#cfcfcf" stroke="none" font-family="Arial" font-size="8px" font-style="normal" font-weight="normal" text-decoration="undefined" x="350" y="288" text-anchor="start" dominant-baseline="alphabetic" transform="matrix(1 0 0 1 0 0)">UNREGISTERED</text><text fill="#cfcfcf" stroke="none" font-family="Arial" font-size="8px" font-style="normal" font-weight="normal" text-decoration="undefined" x="420" y="0" text-anchor="start" dominant-baseline="alphabetic" transform="matrix(1 0 0 1 0 0)">UNREGISTERED</text><text fill="#cfcfcf" stroke="none" font-family="Arial" font-size="8px" font-style="normal" font-weight="normal" text-decoration="undefined" x="420" y="12" text-anchor="start" dominant-baseline="alphabetic" transform="matrix(1 0 0 1 0 0)">UNREGISTERED</text><text fill="#cfcfcf" stroke="none" font-family="Arial" font-size="8px" font-style="normal" font-weight="normal" text-decoration="undefined" x="420" y="24" text-anchor="start" dominant-baseline="alphabetic" transform="matrix(1 0 0 1 0 0)">UNREGISTERED</text><text fill="#cfcfcf" stroke="none" font-family="Arial" font-size="8px" font-style="normal" font-weight="normal" text-decoration="undefined" x="420" y="36" text-anchor="start" dominant-baseline="alphabetic" transform="matrix(1 0 0 1 0 0)">UNREGISTERED</text><text fill="#cfcfcf" stroke="none" font-family="Arial" font-size="8px" font-style="normal" font-weight="normal" text-decoration="undefined" x="420" y="48" text-anchor="start" dominant-baseline="alphabetic" transform="matrix(1 0 0 1 0 0)">UNREGISTERED</text><text fill="#cfcfcf" stroke="none" font-family="Arial" font-size="8px" font-style="normal" font-weight="normal" text-decoration="undefined" x="420" y="60" text-anchor="start" dominant-baseline="alphabetic" transform="matrix(1 0 0 1 0 0)">UNREGISTERED</text><text fill="#cfcfcf" stroke="none" font-family="Arial" font-size="8px" font-style="normal" font-weight="normal" text-decoration="undefined" x="420" y="72" text-anchor="start" dominant-baseline="alphabetic" transform="matrix(1 0 0 1 0 0)">UNREGISTERED</text><text fill="#cfcfcf" stroke="none" font-family="Arial" font-size="8px" font-style="normal" font-weight="normal" text-decoration="undefined" x="420" y="84" text-anchor="start" dominant-baseline="alphabetic" transform="matrix(1 0 0 1 0 0)">UNREGISTERED</text><text fill="#cfcfcf" stroke="none" font-family="Arial" font-size="8px" font-style="normal" font-weight="normal" text-decoration="undefined" x="420" y="96" text-anchor="start" dominant-baseline="alphabetic" transform="matrix(1 0 0 1 0 0)">UNREGISTERED</text><text fill="#cfcfcf" stroke="none" font-family="Arial" font-size="8px" font-style="normal" font-weight="normal" text-decoration="undefined" x="420" y="108" text-anchor="start" dominant-baseline="alphabetic" transform="matrix(1 0 0 1 0 0)">UNREGISTERED</text><text fill="#cfcfcf" stroke="none" font-family="Arial" font-size="8px" font-style="normal" font-weight="normal" text-decoration="undefined" x="420" y="120" text-anchor="start" dominant-baseline="alphabetic" transform="matrix(1 0 0 1 0 0)">UNREGISTERED</text><text fill="#cfcfcf" stroke="none" font-family="Arial" font-size="8px" font-style="normal" font-weight="normal" text-decoration="undefined" x="420" y="132" text-anchor="start" dominant-baseline="alphabetic" transform="matrix(1 0 0 1 0 0)">UNREGISTERED</text><text fill="#cfcfcf" stroke="none" font-family="Arial" font-size="8px" font-style="normal" font-weight="normal" text-decoration="undefined" x="420" y="144" text-anchor="start" dominant-baseline="alphabetic" transform="matrix(1 0 0 1 0 0)">UNREGISTERED</text><text fill="#cfcfcf" stroke="none" font-family="Arial" font-size="8px" font-style="normal" font-weight="normal" text-decoration="undefined" x="420" y="156" text-anchor="start" dominant-baseline="alphabetic" transform="matrix(1 0 0 1 0 0)">UNREGISTERED</text><text fill="#cfcfcf" stroke="none" font-family="Arial" font-size="8px" font-style="normal" font-weight="normal" text-decoration="undefined" x="420" y="168" text-anchor="start" dominant-baseline="alphabetic" transform="matrix(1 0 0 1 0 0)">UNREGISTERED</text><text fill="#cfcfcf" stroke="none" font-family="Arial" font-size="8px" font-style="normal" font-weight="normal" text-decoration="undefined" x="420" y="180" text-anchor="start" dominant-baseline="alphabetic" transform="matrix(1 0 0 1 0 0)">UNREGISTERED</text><text fill="#cfcfcf" stroke="none" font-family="Arial" font-size="8px" font-style="normal" font-weight="normal" text-decoration="undefined" x="420" y="192" text-anchor="start" dominant-baseline="alphabetic" transform="matrix(1 0 0 1 0 0)">UNREGISTERED</text><text fill="#cfcfcf" stroke="none" font-family="Arial" font-size="8px" font-style="normal" font-weight="normal" text-decoration="undefined" x="420" y="204" text-anchor="start" dominant-baseline="alphabetic" transform="matrix(1 0 0 1 0 0)">UNREGISTERED</text><text fill="#cfcfcf" stroke="none" font-family="Arial" font-size="8px" font-style="normal" font-weight="normal" text-decoration="undefined" x="420" y="216" text-anchor="start" dominant-baseline="alphabetic" transform="matrix(1 0 0 1 0 0)">UNREGISTERED</text><text fill="#cfcfcf" stroke="none" font-family="Arial" font-size="8px" font-style="normal" font-weight="normal" text-decoration="undefined" x="420" y="228" text-anchor="start" dominant-baseline="alphabetic" transform="matrix(1 0 0 1 0 0)">UNREGISTERED</text><text fill="#cfcfcf" stroke="none" font-family="Arial" font-size="8px" font-style="normal" font-weight="normal" text-decoration="undefined" x="420" y="240" text-anchor="start" dominant-baseline="alphabetic" transform="matrix(1 0 0 1 0 0)">UNREGISTERED</text><text fill="#cfcfcf" stroke="none" font-family="Arial" font-size="8px" font-style="normal" font-weight="normal" text-decoration="undefined" x="420" y="252" text-anchor="start" dominant-baseline="alphabetic" transform="matrix(1 0 0 1 0 0)">UNREGISTERED</text><text fill="#cfcfcf" stroke="none" font-family="Arial" font-size="8px" font-style="normal" font-weight="normal" text-decoration="undefined" x="420" y="264" text-anchor="start" dominant-baseline="alphabetic" transform="matrix(1 0 0 1 0 0)">UNREGISTERED</text><text fill="#cfcfcf" stroke="none" font-family="Arial" font-size="8px" font-style="normal" font-weight="normal" text-decoration="undefined" x="420" y="276" text-anchor="start" dominant-baseline="alphabetic" transform="matrix(1 0 0 1 0 0)">UNREGISTERED</text><text fill="#cfcfcf" stroke="none" font-family="Arial" font-size="8px" font-style="normal" font-weight="normal" text-decoration="undefined" x="420" y="288" text-anchor="start" dominant-baseline="alphabetic" transform="matrix(1 0 0 1 0 0)">UNREGISTERED</text><g><path fill="none" stroke="#000000" paint-order="fill stroke markers" d=" M 34 50 L 467 50 L 467 283 L 34 283 L 34 50" stroke-miterlimit="10" stroke-dasharray=""/></g><g><path fill="#ffffff" stroke="none" paint-order="stroke fill markers" d=" M 34 50 L 34 73 L 223.443359375 73 L 234.943359375 61.5 L 234.943359375 50 L 34 50"/></g><g><path fill="none" stroke="#000000" paint-order="fill stroke markers" d=" M 34 50 L 34 73 L 223.443359375 73 L 234.943359375 61.5 L 234.943359375 50 L 34 50 L 34 50" stroke-miterlimit="10" stroke-dasharray=""/></g><g><g><path fill="none" stroke="none"/><text fill="#000000" stroke="none" font-family="Arial" font-size="13px" font-style="normal" font-weight="normal" text-decoration="undefined" x="144.586669921875" y="59.5" text-anchor="middle" dominant-baseline="central" transform="matrix(1 0 0 1 -6 2)">diagrama_de_comunicacao</text></g></g><g><g><path fill="none" stroke="none"/><text fill="#000000" stroke="none" font-family="Arial" font-size="13px" font-style="normal" font-weight="bold" text-decoration="undefined" x="51.864990234375" y="59.5" text-anchor="middle" dominant-baseline="central" transform="matrix(1 0 0 1 -6 2)">sd</text></g></g><g><rect fill="#C0C0C0" stroke="none" x="71" y="95" width="100" height="30" transform="matrix(1 0 0 1 -6 2)" fill-opacity="0.2"/></g><g><rect fill="#ffffff" stroke="none" x="64" y="88" width="100" height="30" transform="matrix(1 0 0 1 -6 2)"/></g><g><path fill="none" stroke="#000000" paint-order="fill stroke markers" d=" M 58 90 L 158 90 L 158 120 L 58 120 L 58 90 Z Z" stroke-miterlimit="10" stroke-dasharray=""/></g><g><rect fill="#ffffff" stroke="none" x="64" y="88" width="100" height="30" transform="matrix(1 0 0 1 -6 2)"/></g><g><path fill="none" stroke="#000000" paint-order="fill stroke markers" d=" M 58 90 L 158 90 L 158 120 L 58 120 L 58 90 Z Z" stroke-miterlimit="10" stroke-dasharray=""/></g><g><g><path fill="none" stroke="none"/><text fill="#000000" stroke="none" font-family="Arial" font-size="13px" font-style="normal" font-weight="bold" text-decoration="undefined" x="114.5" y="101.5" text-anchor="middle" dominant-baseline="central" transform="matrix(1 0 0 1 -6 2)">Lifeline1</text></g></g><g><rect fill="#C0C0C0" stroke="none" x="287" y="143" width="100" height="30" transform="matrix(1 0 0 1 -6 2)" fill-opacity="0.2"/></g><g><rect fill="#ffffff" stroke="none" x="280" y="136" width="100" height="30" transform="matrix(1 0 0 1 -6 2)"/></g><g><path fill="none" stroke="#000000" paint-order="fill stroke markers" d=" M 274 138 L 374 138 L 374 168 L 274 168 L 274 138 Z Z" stroke-miterlimit="10" stroke-dasharray=""/></g><g><rect fill="#ffffff" stroke="none" x="280" y="136" width="100" height="30" transform="matrix(1 0 0 1 -6 2)"/></g><g><path fill="none" stroke="#000000" paint-order="fill stroke markers" d=" M 274 138 L 374 138 L 374 168 L 274 168 L 274 138 Z Z" stroke-miterlimit="10" stroke-dasharray=""/></g><g><g><path fill="none" stroke="none"/><text fill="#000000" stroke="none" font-family="Arial" font-size="13px" font-style="normal" font-weight="bold" text-decoration="undefined" x="330.5" y="149.5" text-anchor="middle" dominant-baseline="central" transform="matrix(1 0 0 1 -6 2)">Lifeline2</text></g></g><g><path fill="none" stroke="#000000" paint-order="fill stroke markers" d=" M 159 116 L 273 142" stroke-miterlimit="10" stroke-dasharray=""/></g><g><path fill="none" stroke="#000000" paint-order="fill stroke markers" d=" M 237 123 L 199 115" stroke-miterlimit="10" stroke-dasharray=""/></g><g><path fill="#000000" stroke="none" paint-order="stroke fill markers" d=" M 225 125 L 237 123 L 227 116"/></g><g><rect fill="#ffffff" stroke="none" x="184.977783203125" y="100.5" width="78.04443359375" height="13" transform="matrix(1 0 0 1 -6 2)"/></g><g><g><path fill="none" stroke="none"/><text fill="#000000" stroke="none" font-family="Arial" font-size="13px" font-style="normal" font-weight="normal" text-decoration="undefined" x="224" y="107" text-anchor="middle" dominant-baseline="central" transform="matrix(1 0 0 1 -6 2)">1 : Message1</text></g></g><g><g><path fill="none" stroke="none"/><text fill="#000000" stroke="none" font-family="Arial" font-size="15px" font-style="normal" font-weight="normal" text-decoration="undefined" x="21" y="13" text-anchor="start" dominant-baseline="text-before-edge" transform="matrix(1 0 0 1 -6 2)">Exemplo de diagrama de comunicação:</text></g></g></g></svg>