<svg version="1.1" xmlns="http://www.w3.org/2000/svg" xmlns:xlink="http://www.w3.org/1999/xlink" width="373" height="164"><defs/><g><text fill="#cfcfcf" stroke="none" font-family="Arial" font-size="8px" font-style="normal" font-weight="normal" text-decoration="undefined" x="0" y="0" text-anchor="start" dominant-baseline="alphabetic" transform="matrix(1 0 0 1 0 0)">UNREGISTERED</text><text fill="#cfcfcf" stroke="none" font-family="Arial" font-size="8px" font-style="normal" font-weight="normal" text-decoration="undefined" x="0" y="12" text-anchor="start" dominant-baseline="alphabetic" transform="matrix(1 0 0 1 0 0)">UNREGISTERED</text><text fill="#cfcfcf" stroke="none" font-family="Arial" font-size="8px" font-style="normal" font-weight="normal" text-decoration="undefined" x="0" y="24" text-anchor="start" dominant-baseline="alphabetic" transform="matrix(1 0 0 1 0 0)">UNREGISTERED</text><text fill="#cfcfcf" stroke="none" font-family="Arial" font-size="8px" font-style="normal" font-weight="normal" text-decoration="undefined" x="0" y="36" text-anchor="start" dominant-baseline="alphabetic" transform="matrix(1 0 0 1 0 0)">UNREGISTERED</text><text fill="#cfcfcf" stroke="none" font-family="Arial" font-size="8px" font-style="normal" font-weight="normal" text-decoration="undefined" x="0" y="48" text-anchor="start" dominant-baseline="alphabetic" transform="matrix(1 0 0 1 0 0)">UNREGISTERED</text><text fill="#cfcfcf" stroke="none" font-family="Arial" font-size="8px" font-style="normal" font-weight="normal" text-decoration="undefined" x="0" y="60" text-anchor="start" dominant-baseline="alphabetic" transform="matrix(1 0 0 1 0 0)">UNREGISTERED</text><text fill="#cfcfcf" stroke="none" font-family="Arial" font-size="8px" font-style="normal" font-weight="normal" text-decoration="undefined" x="0" y="72" text-anchor="start" dominant-baseline="alphabetic" transform="matrix(1 0 0 1 0 0)">UNREGISTERED</text><text fill="#cfcfcf" stroke="none" font-family="Arial" font-size="8px" font-style="normal" font-weight="normal" text-decoration="undefined" x="0" y="84" text-anchor="start" dominant-baseline="alphabetic" transform="matrix(1 0 0 1 0 0)">UNREGISTERED</text><text fill="#cfcfcf" stroke="none" font-family="Arial" font-size="8px" font-style="normal" font-weight="normal" text-decoration="undefined" x="0" y="96" text-anchor="start" dominant-baseline="alphabetic" transform="matrix(1 0 0 1 0 0)">UNREGISTERED</text><text fill="#cfcfcf" stroke="none" font-family="Arial" font-size="8px" font-style="normal" font-weight="normal" text-decoration="undefined" x="0" y="108" text-anchor="start" dominant-baseline="alphabetic" transform="matrix(1 0 0 1 0 0)">UNREGISTERED</text><text fill="#cfcfcf" stroke="none" font-family="Arial" font-size="8px" font-style="normal" font-weight="normal" text-decoration="undefined" x="0" y="120" text-anchor="start" dominant-baseline="alphabetic" transform="matrix(1 0 0 1 0 0)">UNREGISTERED</text><text fill="#cfcfcf" stroke="none" font-family="Arial" font-size="8px" font-style="normal" font-weight="normal" text-decoration="undefined" x="0" y="132" text-anchor="start" dominant-baseline="alphabetic" transform="matrix(1 0 0 1 0 0)">UNREGISTERED</text><text fill="#cfcfcf" stroke="none" font-family="Arial" font-size="8px" font-style="normal" font-weight="normal" text-decoration="undefined" x="0" y="144" text-anchor="start" dominant-baseline="alphabetic" transform="matrix(1 0 0 1 0 0)">UNREGISTERED</text><text fill="#cfcfcf" stroke="none" font-family="Arial" font-size="8px" font-style="normal" font-weight="normal" text-decoration="undefined" x="0" y="156" text-anchor="start" dominant-baseline="alphabetic" transform="matrix(1 0 0 1 0 0)">UNREGISTERED</text><text fill="#cfcfcf" stroke="none" font-family="Arial" font-size="8px" font-style="normal" font-weight="normal" text-decoration="undefined" x="70" y="0" text-anchor="start" dominant-baseline="alphabetic" transform="matrix(1 0 0 1 0 0)">UNREGISTERED</text><text fill="#cfcfcf" stroke="none" font-family="Arial" font-size="8px" font-style="normal" font-weight="normal" text-decoration="undefined" x="70" y="12" text-anchor="start" dominant-baseline="alphabetic" transform="matrix(1 0 0 1 0 0)">UNREGISTERED</text><text fill="#cfcfcf" stroke="none" font-family="Arial" font-size="8px" font-style="normal" font-weight="normal" text-decoration="undefined" x="70" y="24" text-anchor="start" dominant-baseline="alphabetic" transform="matrix(1 0 0 1 0 0)">UNREGISTERED</text><text fill="#cfcfcf" stroke="none" font-family="Arial" font-size="8px" font-style="normal" font-weight="normal" text-decoration="undefined" x="70" y="36" text-anchor="start" dominant-baseline="alphabetic" transform="matrix(1 0 0 1 0 0)">UNREGISTERED</text><text fill="#cfcfcf" stroke="none" font-family="Arial" font-size="8px" font-style="normal" font-weight="normal" text-decoration="undefined" x="70" y="48" text-anchor="start" dominant-baseline="alphabetic" transform="matrix(1 0 0 1 0 0)">UNREGISTERED</text><text fill="#cfcfcf" stroke="none" font-family="Arial" font-size="8px" font-style="normal" font-weight="normal" text-decoration="undefined" x="70" y="60" text-anchor="start" dominant-baseline="alphabetic" transform="matrix(1 0 0 1 0 0)">UNREGISTERED</text><text fill="#cfcfcf" stroke="none" font-family="Arial" font-size="8px" font-style="normal" font-weight="normal" text-decoration="undefined" x="70" y="72" text-anchor="start" dominant-baseline="alphabetic" transform="matrix(1 0 0 1 0 0)">UNREGISTERED</text><text fill="#cfcfcf" stroke="none" font-family="Arial" font-size="8px" font-style="normal" font-weight="normal" text-decoration="undefined" x="70" y="84" text-anchor="start" dominant-baseline="alphabetic" transform="matrix(1 0 0 1 0 0)">UNREGISTERED</text><text fill="#cfcfcf" stroke="none" font-family="Arial" font-size="8px" font-style="normal" font-weight="normal" text-decoration="undefined" x="70" y="96" text-anchor="start" dominant-baseline="alphabetic" transform="matrix(1 0 0 1 0 0)">UNREGISTERED</text><text fill="#cfcfcf" stroke="none" font-family="Arial" font-size="8px" font-style="normal" font-weight="normal" text-decoration="undefined" x="70" y="108" text-anchor="start" dominant-baseline="alphabetic" transform="matrix(1 0 0 1 0 0)">UNREGISTERED</text><text fill="#cfcfcf" stroke="none" font-family="Arial" font-size="8px" font-style="normal" font-weight="normal" text-decoration="undefined" x="70" y="120" text-anchor="start" dominant-baseline="alphabetic" transform="matrix(1 0 0 1 0 0)">UNREGISTERED</text><text fill="#cfcfcf" stroke="none" font-family="Arial" font-size="8px" font-style="normal" font-weight="normal" text-decoration="undefined" x="70" y="132" text-anchor="start" dominant-baseline="alphabetic" transform="matrix(1 0 0 1 0 0)">UNREGISTERED</text><text fill="#cfcfcf" stroke="none" font-family="Arial" font-size="8px" font-style="normal" font-weight="normal" text-decoration="undefined" x="70" y="144" text-anchor="start" dominant-baseline="alphabetic" transform="matrix(1 0 0 1 0 0)">UNREGISTERED</text><text fill="#cfcfcf" stroke="none" font-family="Arial" font-size="8px" font-style="normal" font-weight="normal" text-decoration="undefined" x="70" y="156" text-anchor="start" dominant-baseline="alphabetic" transform="matrix(1 0 0 1 0 0)">UNREGISTERED</text><text fill="#cfcfcf" stroke="none" font-family="Arial" font-size="8px" font-style="normal" font-weight="normal" text-decoration="undefined" x="140" y="0" text-anchor="start" dominant-baseline="alphabetic" transform="matrix(1 0 0 1 0 0)">UNREGISTERED</text><text fill="#cfcfcf" stroke="none" font-family="Arial" font-size="8px" font-style="normal" font-weight="normal" text-decoration="undefined" x="140" y="12" text-anchor="start" dominant-baseline="alphabetic" transform="matrix(1 0 0 1 0 0)">UNREGISTERED</text><text fill="#cfcfcf" stroke="none" font-family="Arial" font-size="8px" font-style="normal" font-weight="normal" text-decoration="undefined" x="140" y="24" text-anchor="start" dominant-baseline="alphabetic" transform="matrix(1 0 0 1 0 0)">UNREGISTERED</text><text fill="#cfcfcf" stroke="none" font-family="Arial" font-size="8px" font-style="normal" font-weight="normal" text-decoration="undefined" x="140" y="36" text-anchor="start" dominant-baseline="alphabetic" transform="matrix(1 0 0 1 0 0)">UNREGISTERED</text><text fill="#cfcfcf" stroke="none" font-family="Arial" font-size="8px" font-style="normal" font-weight="normal" text-decoration="undefined" x="140" y="48" text-anchor="start" dominant-baseline="alphabetic" transform="matrix(1 0 0 1 0 0)">UNREGISTERED</text><text fill="#cfcfcf" stroke="none" font-family="Arial" font-size="8px" font-style="normal" font-weight="normal" text-decoration="undefined" x="140" y="60" text-anchor="start" dominant-baseline="alphabetic" transform="matrix(1 0 0 1 0 0)">UNREGISTERED</text><text fill="#cfcfcf" stroke="none" font-family="Arial" font-size="8px" font-style="normal" font-weight="normal" text-decoration="undefined" x="140" y="72" text-anchor="start" dominant-baseline="alphabetic" transform="matrix(1 0 0 1 0 0)">UNREGISTERED</text><text fill="#cfcfcf" stroke="none" font-family="Arial" font-size="8px" font-style="normal" font-weight="normal" text-decoration="undefined" x="140" y="84" text-anchor="start" dominant-baseline="alphabetic" transform="matrix(1 0 0 1 0 0)">UNREGISTERED</text><text fill="#cfcfcf" stroke="none" font-family="Arial" font-size="8px" font-style="normal" font-weight="normal" text-decoration="undefined" x="140" y="96" text-anchor="start" dominant-baseline="alphabetic" transform="matrix(1 0 0 1 0 0)">UNREGISTERED</text><text fill="#cfcfcf" stroke="none" font-family="Arial" font-size="8px" font-style="normal" font-weight="normal" text-decoration="undefined" x="140" y="108" text-anchor="start" dominant-baseline="alphabetic" transform="matrix(1 0 0 1 0 0)">UNREGISTERED</text><text fill="#cfcfcf" stroke="none" font-family="Arial" font-size="8px" font-style="normal" font-weight="normal" text-decoration="undefined" x="140" y="120" text-anchor="start" dominant-baseline="alphabetic" transform="matrix(1 0 0 1 0 0)">UNREGISTERED</text><text fill="#cfcfcf" stroke="none" font-family="Arial" font-size="8px" font-style="normal" font-weight="normal" text-decoration="undefined" x="140" y="132" text-anchor="start" dominant-baseline="alphabetic" transform="matrix(1 0 0 1 0 0)">UNREGISTERED</text><text fill="#cfcfcf" stroke="none" font-family="Arial" font-size="8px" font-style="normal" font-weight="normal" text-decoration="undefined" x="140" y="144" text-anchor="start" dominant-baseline="alphabetic" transform="matrix(1 0 0 1 0 0)">UNREGISTERED</text><text fill="#cfcfcf" stroke="none" font-family="Arial" font-size="8px" font-style="normal" font-weight="normal" text-decoration="undefined" x="140" y="156" text-anchor="start" dominant-baseline="alphabetic" transform="matrix(1 0 0 1 0 0)">UNREGISTERED</text><text fill="#cfcfcf" stroke="none" font-family="Arial" font-size="8px" font-style="normal" font-weight="normal" text-decoration="undefined" x="210" y="0" text-anchor="start" dominant-baseline="alphabetic" transform="matrix(1 0 0 1 0 0)">UNREGISTERED</text><text fill="#cfcfcf" stroke="none" font-family="Arial" font-size="8px" font-style="normal" font-weight="normal" text-decoration="undefined" x="210" y="12" text-anchor="start" dominant-baseline="alphabetic" transform="matrix(1 0 0 1 0 0)">UNREGISTERED</text><text fill="#cfcfcf" stroke="none" font-family="Arial" font-size="8px" font-style="normal" font-weight="normal" text-decoration="undefined" x="210" y="24" text-anchor="start" dominant-baseline="alphabetic" transform="matrix(1 0 0 1 0 0)">UNREGISTERED</text><text fill="#cfcfcf" stroke="none" font-family="Arial" font-size="8px" font-style="normal" font-weight="normal" text-decoration="undefined" x="210" y="36" text-anchor="start" dominant-baseline="alphabetic" transform="matrix(1 0 0 1 0 0)">UNREGISTERED</text><text fill="#cfcfcf" stroke="none" font-family="Arial" font-size="8px" font-style="normal" font-weight="normal" text-decoration="undefined" x="210" y="48" text-anchor="start" dominant-baseline="alphabetic" transform="matrix(1 0 0 1 0 0)">UNREGISTERED</text><text fill="#cfcfcf" stroke="none" font-family="Arial" font-size="8px" font-style="normal" font-weight="normal" text-decoration="undefined" x="210" y="60" text-anchor="start" dominant-baseline="alphabetic" transform="matrix(1 0 0 1 0 0)">UNREGISTERED</text><text fill="#cfcfcf" stroke="none" font-family="Arial" font-size="8px" font-style="normal" font-weight="normal" text-decoration="undefined" x="210" y="72" text-anchor="start" dominant-baseline="alphabetic" transform="matrix(1 0 0 1 0 0)">UNREGISTERED</text><text fill="#cfcfcf" stroke="none" font-family="Arial" font-size="8px" font-style="normal" font-weight="normal" text-decoration="undefined" x="210" y="84" text-anchor="start" dominant-baseline="alphabetic" transform="matrix(1 0 0 1 0 0)">UNREGISTERED</text><text fill="#cfcfcf" stroke="none" font-family="Arial" font-size="8px" font-style="normal" font-weight="normal" text-decoration="undefined" x="210" y="96" text-anchor="start" dominant-baseline="alphabetic" transform="matrix(1 0 0 1 0 0)">UNREGISTERED</text><text fill="#cfcfcf" stroke="none" font-family="Arial" font-size="8px" font-style="normal" font-weight="normal" text-decoration="undefined" x="210" y="108" text-anchor="start" dominant-baseline="alphabetic" transform="matrix(1 0 0 1 0 0)">UNREGISTERED</text><text fill="#cfcfcf" stroke="none" font-family="Arial" font-size="8px" font-style="normal" font-weight="normal" text-decoration="undefined" x="210" y="120" text-anchor="start" dominant-baseline="alphabetic" transform="matrix(1 0 0 1 0 0)">UNREGISTERED</text><text fill="#cfcfcf" stroke="none" font-family="Arial" font-size="8px" font-style="normal" font-weight="normal" text-decoration="undefined" x="210" y="132" text-anchor="start" dominant-baseline="alphabetic" transform="matrix(1 0 0 1 0 0)">UNREGISTERED</text><text fill="#cfcfcf" stroke="none" font-family="Arial" font-size="8px" font-style="normal" font-weight="normal" text-decoration="undefined" x="210" y="144" text-anchor="start" dominant-baseline="alphabetic" transform="matrix(1 0 0 1 0 0)">UNREGISTERED</text><text fill="#cfcfcf" stroke="none" font-family="Arial" font-size="8px" font-style="normal" font-weight="normal" text-decoration="undefined" x="210" y="156" text-anchor="start" dominant-baseline="alphabetic" transform="matrix(1 0 0 1 0 0)">UNREGISTERED</text><text fill="#cfcfcf" stroke="none" font-family="Arial" font-size="8px" font-style="normal" font-weight="normal" text-decoration="undefined" x="280" y="0" text-anchor="start" dominant-baseline="alphabetic" transform="matrix(1 0 0 1 0 0)">UNREGISTERED</text><text fill="#cfcfcf" stroke="none" font-family="Arial" font-size="8px" font-style="normal" font-weight="normal" text-decoration="undefined" x="280" y="12" text-anchor="start" dominant-baseline="alphabetic" transform="matrix(1 0 0 1 0 0)">UNREGISTERED</text><text fill="#cfcfcf" stroke="none" font-family="Arial" font-size="8px" font-style="normal" font-weight="normal" text-decoration="undefined" x="280" y="24" text-anchor="start" dominant-baseline="alphabetic" transform="matrix(1 0 0 1 0 0)">UNREGISTERED</text><text fill="#cfcfcf" stroke="none" font-family="Arial" font-size="8px" font-style="normal" font-weight="normal" text-decoration="undefined" x="280" y="36" text-anchor="start" dominant-baseline="alphabetic" transform="matrix(1 0 0 1 0 0)">UNREGISTERED</text><text fill="#cfcfcf" stroke="none" font-family="Arial" font-size="8px" font-style="normal" font-weight="normal" text-decoration="undefined" x="280" y="48" text-anchor="start" dominant-baseline="alphabetic" transform="matrix(1 0 0 1 0 0)">UNREGISTERED</text><text fill="#cfcfcf" stroke="none" font-family="Arial" font-size="8px" font-style="normal" font-weight="normal" text-decoration="undefined" x="280" y="60" text-anchor="start" dominant-baseline="alphabetic" transform="matrix(1 0 0 1 0 0)">UNREGISTERED</text><text fill="#cfcfcf" stroke="none" font-family="Arial" font-size="8px" font-style="normal" font-weight="normal" text-decoration="undefined" x="280" y="72" text-anchor="start" dominant-baseline="alphabetic" transform="matrix(1 0 0 1 0 0)">UNREGISTERED</text><text fill="#cfcfcf" stroke="none" font-family="Arial" font-size="8px" font-style="normal" font-weight="normal" text-decoration="undefined" x="280" y="84" text-anchor="start" dominant-baseline="alphabetic" transform="matrix(1 0 0 1 0 0)">UNREGISTERED</text><text fill="#cfcfcf" stroke="none" font-family="Arial" font-size="8px" font-style="normal" font-weight="normal" text-decoration="undefined" x="280" y="96" text-anchor="start" dominant-baseline="alphabetic" transform="matrix(1 0 0 1 0 0)">UNREGISTERED</text><text fill="#cfcfcf" stroke="none" font-family="Arial" font-size="8px" font-style="normal" font-weight="normal" text-decoration="undefined" x="280" y="108" text-anchor="start" dominant-baseline="alphabetic" transform="matrix(1 0 0 1 0 0)">UNREGISTERED</text><text fill="#cfcfcf" stroke="none" font-family="Arial" font-size="8px" font-style="normal" font-weight="normal" text-decoration="undefined" x="280" y="120" text-anchor="start" dominant-baseline="alphabetic" transform="matrix(1 0 0 1 0 0)">UNREGISTERED</text><text fill="#cfcfcf" stroke="none" font-family="Arial" font-size="8px" font-style="normal" font-weight="normal" text-decoration="undefined" x="280" y="132" text-anchor="start" dominant-baseline="alphabetic" transform="matrix(1 0 0 1 0 0)">UNREGISTERED</text><text fill="#cfcfcf" stroke="none" font-family="Arial" font-size="8px" font-style="normal" font-weight="normal" text-decoration="undefined" x="280" y="144" text-anchor="start" dominant-baseline="alphabetic" transform="matrix(1 0 0 1 0 0)">UNREGISTERED</text><text fill="#cfcfcf" stroke="none" font-family="Arial" font-size="8px" font-style="normal" font-weight="normal" text-decoration="undefined" x="280" y="156" text-anchor="start" dominant-baseline="alphabetic" transform="matrix(1 0 0 1 0 0)">UNREGISTERED</text><text fill="#cfcfcf" stroke="none" font-family="Arial" font-size="8px" font-style="normal" font-weight="normal" text-decoration="undefined" x="350" y="0" text-anchor="start" dominant-baseline="alphabetic" transform="matrix(1 0 0 1 0 0)">UNREGISTERED</text><text fill="#cfcfcf" stroke="none" font-family="Arial" font-size="8px" font-style="normal" font-weight="normal" text-decoration="undefined" x="350" y="12" text-anchor="start" dominant-baseline="alphabetic" transform="matrix(1 0 0 1 0 0)">UNREGISTERED</text><text fill="#cfcfcf" stroke="none" font-family="Arial" font-size="8px" font-style="normal" font-weight="normal" text-decoration="undefined" x="350" y="24" text-anchor="start" dominant-baseline="alphabetic" transform="matrix(1 0 0 1 0 0)">UNREGISTERED</text><text fill="#cfcfcf" stroke="none" font-family="Arial" font-size="8px" font-style="normal" font-weight="normal" text-decoration="undefined" x="350" y="36" text-anchor="start" dominant-baseline="alphabetic" transform="matrix(1 0 0 1 0 0)">UNREGISTERED</text><text fill="#cfcfcf" stroke="none" font-family="Arial" font-size="8px" font-style="normal" font-weight="normal" text-decoration="undefined" x="350" y="48" text-anchor="start" dominant-baseline="alphabetic" transform="matrix(1 0 0 1 0 0)">UNREGISTERED</text><text fill="#cfcfcf" stroke="none" font-family="Arial" font-size="8px" font-style="normal" font-weight="normal" text-decoration="undefined" x="350" y="60" text-anchor="start" dominant-baseline="alphabetic" transform="matrix(1 0 0 1 0 0)">UNREGISTERED</text><text fill="#cfcfcf" stroke="none" font-family="Arial" font-size="8px" font-style="normal" font-weight="normal" text-decoration="undefined" x="350" y="72" text-anchor="start" dominant-baseline="alphabetic" transform="matrix(1 0 0 1 0 0)">UNREGISTERED</text><text fill="#cfcfcf" stroke="none" font-family="Arial" font-size="8px" font-style="normal" font-weight="normal" text-decoration="undefined" x="350" y="84" text-anchor="start" dominant-baseline="alphabetic" transform="matrix(1 0 0 1 0 0)">UNREGISTERED</text><text fill="#cfcfcf" stroke="none" font-family="Arial" font-size="8px" font-style="normal" font-weight="normal" text-decoration="undefined" x="350" y="96" text-anchor="start" dominant-baseline="alphabetic" transform="matrix(1 0 0 1 0 0)">UNREGISTERED</text><text fill="#cfcfcf" stroke="none" font-family="Arial" font-size="8px" font-style="normal" font-weight="normal" text-decoration="undefined" x="350" y="108" text-anchor="start" dominant-baseline="alphabetic" transform="matrix(1 0 0 1 0 0)">UNREGISTERED</text><text fill="#cfcfcf" stroke="none" font-family="Arial" font-size="8px" font-style="normal" font-weight="normal" text-decoration="undefined" x="350" y="120" text-anchor="start" dominant-baseline="alphabetic" transform="matrix(1 0 0 1 0 0)">UNREGISTERED</text><text fill="#cfcfcf" stroke="none" font-family="Arial" font-size="8px" font-style="normal" font-weight="normal" text-decoration="undefined" x="350" y="132" text-anchor="start" dominant-baseline="alphabetic" transform="matrix(1 0 0 1 0 0)">UNREGISTERED</text><text fill="#cfcfcf" stroke="none" font-family="Arial" font-size="8px" font-style="normal" font-weight="normal" text-decoration="undefined" x="350" y="144" text-anchor="start" dominant-baseline="alphabetic" transform="matrix(1 0 0 1 0 0)">UNREGISTERED</text><text fill="#cfcfcf" stroke="none" font-family="Arial" font-size="8px" font-style="normal" font-weight="normal" text-decoration="undefined" x="350" y="156" text-anchor="start" dominant-baseline="alphabetic" transform="matrix(1 0 0 1 0 0)">UNREGISTERED</text><g><rect fill="#C0C0C0" stroke="none" x="127" y="135" width="27.996679687500006" height="15" transform="matrix(1 0 0 1 2 -14)" fill-opacity="0.2"/></g><g><rect fill="#C0C0C0" stroke="none" x="127" y="149" width="69.99169921875" height="26" transform="matrix(1 0 0 1 2 -14)" fill-opacity="0.2"/></g><g><rect fill="#ffffff" stroke="none" x="120" y="143" width="69.99169921875" height="25" transform="matrix(1 0 0 1 2 -14)"/></g><g><path fill="none" stroke="#000000" paint-order="fill stroke markers" d=" M 122 129 L 191.99169921875 129 L 191.99169921875 154 L 122 154 L 122 129 Z Z" stroke-miterlimit="10" stroke-dasharray=""/></g><g><rect fill="#ffffff" stroke="none" x="120" y="128" width="27.996679687500006" height="15" transform="matrix(1 0 0 1 2 -14)"/></g><g><path fill="none" stroke="#000000" paint-order="fill stroke markers" d=" M 122 114 L 149.9966796875 114 L 149.9966796875 129 L 122 129 L 122 114 Z Z" stroke-miterlimit="10" stroke-dasharray=""/></g><g><rect fill="#ffffff" stroke="none" x="120" y="142" width="69.99169921875" height="26" transform="matrix(1 0 0 1 2 -14)"/></g><g><path fill="none" stroke="#000000" paint-order="fill stroke markers" d=" M 122 128 L 191.99169921875 128 L 191.99169921875 154 L 122 154 L 122 128 Z Z" stroke-miterlimit="10" stroke-dasharray=""/></g><g><g><path fill="none" stroke="none"/><text fill="#000000" stroke="none" font-family="Arial" font-size="13px" font-style="normal" font-weight="bold" text-decoration="undefined" x="155.495849609375" y="156.5" text-anchor="middle" dominant-baseline="central" transform="matrix(1 0 0 1 2 -14)">Package1</text></g></g><g><g><path fill="none" stroke="none"/><text fill="#000000" stroke="none" font-family="Arial" font-size="15px" font-style="normal" font-weight="normal" text-decoration="undefined" x="13" y="29" text-anchor="start" dominant-baseline="text-before-edge" transform="matrix(1 0 0 1 2 -14)">Exemplo de diagrama de pacotes:</text></g></g></g></svg>